<?xml version="1.0" encoding="UTF-8"?>
<svg version="1.1" xmlns="http://www.w3.org/2000/svg" width="300" height="300">
<path d="M0 0 C0.72643204 -0.00189835 1.45286407 -0.00379669 2.2013092 -0.00575256 C4.59899795 -0.00944858 6.99638109 0.00125015 9.39404297 0.01245117 C11.08958908 0.01364664 12.78513586 0.01409536 14.48068237 0.01383972 C18.04657105 0.01540403 21.6123593 0.02367264 25.17822266 0.03710938 C29.66026208 0.05381735 34.14218941 0.05784834 38.62425613 0.0572834 C58.9414103 0.05797409 79.21321349 0.3047221 99.51123047 1.24291992 C100.48179231 4.81799433 100.64038493 8.0076063 100.64404297 11.72338867 C100.64533203 12.96926758 100.64662109 14.21514648 100.64794922 15.4987793 C100.64408203 16.7962207 100.64021484 18.09366211 100.63623047 19.43041992 C100.64009766 20.73946289 100.64396484 22.04850586 100.64794922 23.3972168 C100.64666016 24.63922852 100.64537109 25.88124023 100.64404297 27.16088867 C100.64291504 28.30323975 100.64178711 29.44559082 100.640625 30.62255859 C100.51123047 33.24291992 100.51123047 33.24291992 99.51123047 34.24291992 C98.11851863 34.34268325 96.72080118 34.37366703 95.32452393 34.37663269 C93.97020767 34.38303017 93.97020767 34.38303017 92.58853149 34.38955688 C91.59010223 34.3891037 90.59167297 34.38865051 89.56298828 34.38818359 C88.5174881 34.39154221 87.47198792 34.39490082 86.39480591 34.39836121 C82.9179772 34.40790603 79.44119649 34.40981627 75.96435547 34.41088867 C73.55637593 34.41409948 71.1483966 34.41746341 68.74041748 34.42097473 C63.68289742 34.42697532 58.62539447 34.42881375 53.56787109 34.42822266 C47.08334531 34.42812114 40.59892927 34.44175882 34.11442947 34.45899487 C29.13705948 34.47010936 24.15971603 34.47214201 19.1823349 34.47161293 C16.79171115 34.47279444 14.40108674 34.47722573 12.01047516 34.4849453 C8.66592219 34.49473124 5.32160751 34.49187221 1.97705078 34.48583984 C0.49155228 34.4942691 0.49155228 34.4942691 -1.0239563 34.50286865 C-9.57143314 34.46364968 -9.57143314 34.46364968 -13.48876953 32.24291992 C-17.42355305 27.84420996 -16.93655991 22.82351547 -16.86376953 17.24291992 C-16.87537109 16.3534668 -16.88697266 15.46401367 -16.89892578 14.54760742 C-16.86013604 5.88456476 -16.86013604 5.88456476 -13.48876953 2.24291992 C-8.89740636 0.31837251 -4.95102634 -0.00540367 0 0 Z " fill="#010100" transform="translate(58.48876953125,167.757080078125)"/>
<path d="M0 0 C0.92977158 -0.0049649 1.85954315 -0.00992981 2.81748962 -0.01504517 C5.8557919 -0.02950774 8.89404219 -0.03643776 11.93237305 -0.04199219 C13.4979448 -0.04623325 13.4979448 -0.04623325 15.09514427 -0.05056 C20.60574975 -0.06547878 26.11632948 -0.07475755 31.62695312 -0.07910156 C37.31424551 -0.08461181 43.00130158 -0.10871409 48.68851948 -0.13707352 C53.07139284 -0.15568035 57.45420862 -0.1609042 61.83711815 -0.16243744 C63.93468726 -0.16546297 66.03225537 -0.17348815 68.12978554 -0.18662262 C71.0567617 -0.20366088 73.98315074 -0.2018096 76.91015625 -0.1953125 C77.77414032 -0.20452728 78.63812439 -0.21374207 79.52828979 -0.22323608 C84.21463746 -0.19061971 87.3479059 0.08562161 91.1315918 3.16113281 C94.09636098 7.60828658 93.49985737 11.80348267 93.5065918 17.03613281 C93.53108398 18.03 93.55557617 19.02386719 93.58081055 20.04785156 C93.59886208 24.54268454 93.60240424 27.35774648 91.2956543 31.29394531 C87.77929162 34.32791889 84.84767759 34.28419483 80.375 34.2746582 C78.60350334 34.27454491 78.60350334 34.27454491 76.79621887 34.27442932 C75.52114975 34.26926804 74.24608063 34.26410675 72.93237305 34.25878906 C71.62705124 34.25737411 70.32172943 34.25595917 68.97685242 34.25450134 C65.50969523 34.25068661 62.04258006 34.24086525 58.57543945 34.22979736 C55.03621997 34.21956079 51.49699369 34.21499891 47.95776367 34.20996094 C41.01568914 34.19924204 34.07364249 34.18217815 27.1315918 34.16113281 C27.1315918 34.82113281 27.1315918 35.48113281 27.1315918 36.16113281 C26.55348755 35.99905838 25.9753833 35.83698395 25.37976074 35.66999817 C21.74590641 34.84748766 18.05914227 35.00418895 14.3503418 34.98535156 C12.60423585 34.96216374 10.85814204 34.93804684 9.11206055 34.91308594 C6.36669653 34.87791419 3.62178313 34.84858501 0.8762207 34.83520508 C-1.77878741 34.81974409 -4.43249367 34.77956349 -7.0871582 34.73535156 C-7.90704224 34.73725998 -8.72692627 34.7391684 -9.57165527 34.74113464 C-13.19593248 34.66327117 -15.29206989 34.52984441 -18.39282227 32.54614258 C-20.37131572 29.3482765 -20.32478296 27.17449403 -20.2590332 23.42675781 C-20.24614258 22.13125 -20.23325195 20.83574219 -20.2199707 19.50097656 C-20.18655187 18.13768457 -20.15269211 16.77440332 -20.1184082 15.41113281 C-20.09833528 14.03225217 -20.08008588 12.65334369 -20.0637207 11.27441406 C-20.01656268 7.90261537 -19.95075358 4.53222595 -19.8684082 1.16113281 C-13.22538439 0.39205873 -6.68525825 0.0087522 0 0 Z " fill="#010100" transform="translate(162.868408203125,102.8388671875)"/>
<path d="M0 0 C10.56 0 21.12 0 32 0 C32.67869145 3.39345727 33.12563104 5.84928934 33.13371277 9.17419434 C33.13797775 9.97318649 33.14224274 10.77217865 33.14663696 11.59538269 C33.14618378 12.45787125 33.14573059 13.3203598 33.14526367 14.20898438 C33.14862228 15.12827225 33.1519809 16.04756012 33.15544128 16.9947052 C33.16492567 20.02773394 33.16689295 23.06070736 33.16796875 26.09375 C33.17118242 28.20454938 33.17454657 30.31534855 33.17805481 32.42614746 C33.18403932 36.84774289 33.18589534 41.26931878 33.18530273 45.69091797 C33.185201 51.35700294 33.19886792 57.02296293 33.21607494 62.68901825 C33.22719017 67.04702327 33.22922211 71.404998 33.22869301 75.76301575 C33.22987328 77.85220268 33.23429766 79.94139038 33.24202538 82.03056335 C33.25181813 84.95080351 33.24895028 87.87077112 33.24291992 90.79101562 C33.24853943 91.65350418 33.25415894 92.51599274 33.25994873 93.40461731 C33.23159833 98.80497769 33.00450983 102.99549017 29 107 C25.06160587 107.48346287 21.08968422 107.37039526 17.125 107.375 C16.02285156 107.39949219 14.92070312 107.42398438 13.78515625 107.44921875 C12.19380859 107.45501953 12.19380859 107.45501953 10.5703125 107.4609375 C9.59852051 107.46915527 8.62672852 107.47737305 7.62548828 107.48583984 C4.23213142 106.8579079 3.08744846 105.70458645 1 103 C0.10627012 100.20707688 -0.12396233 97.68231586 -0.12025452 94.76055908 C-0.12162918 93.92205917 -0.12300385 93.08355927 -0.12442017 92.21965027 C-0.12082489 91.30830826 -0.11722961 90.39696625 -0.11352539 89.45800781 C-0.11367142 88.49182022 -0.11381744 87.52563263 -0.1139679 86.53016663 C-0.11327144 83.33779655 -0.1054915 80.14548488 -0.09765625 76.953125 C-0.09579112 74.73923779 -0.09436767 72.52535017 -0.09336853 70.3114624 C-0.08955082 64.48519755 -0.07972687 58.65895764 -0.06866455 52.83270264 C-0.05843441 46.88716977 -0.05386747 40.94163288 -0.04882812 34.99609375 C-0.03810396 23.33071645 -0.02051317 11.6653642 0 0 Z " fill="#010100" transform="translate(168,145)"/>
<path d="M0 0 C2.04664566 3.06996849 2.24926417 3.66528563 2.24050903 7.1191864 C2.24325836 7.95631165 2.24600769 8.79343689 2.24884033 9.65592957 C2.24164978 10.57086685 2.23445923 11.48580414 2.22705078 12.4284668 C2.22734283 13.39450836 2.22763489 14.36054993 2.22793579 15.35586548 C2.22654079 18.5537408 2.21097143 21.75138406 2.1953125 24.94921875 C2.19158298 27.16453423 2.18873572 29.37985135 2.18673706 31.59516907 C2.17909581 37.4297032 2.15944304 43.26413797 2.1373291 49.09863281 C2.11688129 55.05076758 2.10773762 61.00291837 2.09765625 66.95507812 C2.07619767 78.63676244 2.04205575 90.31837296 2 102 C-2.18744075 102.05840224 -6.37477565 102.09373166 -10.5625 102.125 C-11.74392578 102.14175781 -12.92535156 102.15851563 -14.14257812 102.17578125 C-15.29306641 102.18222656 -16.44355469 102.18867188 -17.62890625 102.1953125 C-18.68150635 102.20578613 -19.73410645 102.21625977 -20.81860352 102.22705078 C-24.49069389 101.96498002 -27.49894327 101.11493708 -31 100 C-30.96196885 87.56932815 -30.90264442 75.13895808 -30.81609726 62.70852375 C-30.77658011 56.93661165 -30.74441232 51.16485308 -30.72900391 45.39282227 C-30.71386541 39.82296458 -30.67946939 34.25352888 -30.63169098 28.68385887 C-30.61684827 26.55842951 -30.60895734 24.4329399 -30.60811615 22.30745888 C-30.60575348 19.33122334 -30.57872969 16.35616063 -30.54589844 13.38012695 C-30.55344398 12.06058517 -30.55344398 12.06058517 -30.56114197 10.71438599 C-30.4911455 6.61590656 -30.32742458 4.51859149 -28.09088135 0.97624207 C-21.72015336 -5.04519031 -7.7381327 -2.49194104 0 0 Z " fill="#010000" transform="translate(131,58)"/>
<path d="M0 0 C1.09699219 -0.00128906 2.19398437 -0.00257812 3.32421875 -0.00390625 C4.46761719 -0.00003906 5.61101563 0.00382812 6.7890625 0.0078125 C7.89378906 0.00394531 8.99851562 0.00007813 10.13671875 -0.00390625 C18.26553926 0.00553489 26.31429653 0.46076615 34.4140625 1.1328125 C34.43871642 5.67178955 34.45690039 10.21072793 34.46899414 14.74975586 C34.4740339 16.29501016 34.4808657 17.84025966 34.48950195 19.38549805 C34.50158326 21.60206279 34.50729423 23.81856468 34.51171875 26.03515625 C34.51688004 26.7299559 34.52204132 27.42475555 34.52735901 28.14060974 C34.52755527 29.8051058 34.47595379 31.46946749 34.4140625 33.1328125 C32.30537058 35.24150442 27.65731839 34.32143231 24.7421875 34.3359375 C23.86761902 34.34163757 22.99305054 34.34733765 22.09197998 34.35321045 C20.23581152 34.36267753 18.37962612 34.36920118 16.5234375 34.37304688 C13.68980249 34.38272459 10.85690121 34.41371987 8.0234375 34.4453125 C6.22135848 34.45184511 4.41927426 34.45709457 2.6171875 34.4609375 C1.77117981 34.4732843 0.92517212 34.4856311 0.05352783 34.49835205 C-4.65201579 34.48063835 -7.76809175 34.19908088 -11.5859375 31.1328125 C-14.29373701 26.72648421 -13.95320989 21.71439767 -13.9609375 16.6953125 C-13.98542969 15.86193359 -14.00992188 15.02855469 -14.03515625 14.16992188 C-14.06104468 8.71177697 -13.39592171 5.35053186 -9.5859375 1.1328125 C-6.41305602 -0.01179627 -3.34944277 0.00385817 0 0 Z " fill="#020101" transform="translate(55.5859375,102.8671875)"/>
<path d="M0 0 C5.15947346 -0.07440448 10.31863151 -0.12872191 15.47851562 -0.16479492 C17.23215173 -0.17983995 18.98575047 -0.20028104 20.73925781 -0.22631836 C23.26637009 -0.26289121 25.79298296 -0.2797692 28.3203125 -0.29296875 C29.48785568 -0.31619453 29.48785568 -0.31619453 30.6789856 -0.33988953 C35.49892465 -0.3413648 38.87461615 0.23375424 43 3 C46.04632384 7.25230936 45.40667299 12.41269717 45.4375 17.4375 C45.47037109 18.37916016 45.50324219 19.32082031 45.53710938 20.29101562 C45.57359463 24.99097991 45.56367489 27.25376596 42.66015625 31.09765625 C38.1104588 34.3512578 34.0308616 34.14659162 28.6484375 34.1328125 C27.83380035 34.13376923 27.01916321 34.13472595 26.17984009 34.13571167 C24.46006188 34.13639166 22.74028108 34.13454998 21.02050781 34.13037109 C18.37819717 34.12500649 15.73605545 34.13032925 13.09375 34.13671875 C11.42447879 34.13605821 9.75520768 34.13477754 8.0859375 34.1328125 C6.89380142 34.13584885 6.89380142 34.13584885 5.67758179 34.13894653 C0.11496014 34.11496014 0.11496014 34.11496014 -1 33 C-1.10023409 30.73225109 -1.13081341 28.46136837 -1.1328125 26.19140625 C-1.13376923 25.50948715 -1.13472595 24.82756805 -1.13571167 24.12498474 C-1.13639339 22.67992053 -1.13453969 21.23485328 -1.13037109 19.78979492 C-1.12503084 17.57528807 -1.13031205 15.36098481 -1.13671875 13.14648438 C-1.13605781 11.74479122 -1.13477631 10.34309819 -1.1328125 8.94140625 C-1.13168457 7.65951416 -1.13055664 6.37762207 -1.12939453 5.05688477 C-1 2 -1 2 0 0 Z " fill="#020201" transform="translate(211,168)"/>
<path d="M0 0 C10.56 0 21.12 0 32 0 C32.09188266 5.33940353 32.17150073 10.67606044 32.21972656 16.015625 C32.23983061 17.8314748 32.26711835 19.64725995 32.30175781 21.46289062 C32.35033039 24.07438105 32.37298027 26.68501498 32.390625 29.296875 C32.41127014 30.10743347 32.43191528 30.91799194 32.45318604 31.75311279 C32.45458666 35.27867994 32.30677306 37.54311153 30.31713867 40.50634766 C25.94928066 43.3219156 21.10986746 42.65488376 16.0625 42.625 C14.97775391 42.65722656 13.89300781 42.68945312 12.77539062 42.72265625 C11.72673828 42.72394531 10.67808594 42.72523438 9.59765625 42.7265625 C8.64383057 42.73252441 7.69000488 42.73848633 6.70727539 42.74462891 C3.52305412 41.8688173 1.90679052 40.47507287 -0.06382751 37.83352661 C-1.78214676 34.46813816 -1.50225268 31.23139237 -1.26953125 27.5390625 C-1.22562508 26.3532106 -1.22562508 26.3532106 -1.18083191 25.1434021 C-1.0824048 22.63553466 -0.94803688 20.13110815 -0.8125 17.625 C-0.73915154 15.91806956 -0.66816289 14.21103598 -0.59960938 12.50390625 C-0.43141014 8.33337576 -0.21463417 4.16942819 0 0 Z " fill="#010100" transform="translate(101,210)"/>
<path d="M0 0 C1.35254883 0.04737305 1.35254883 0.04737305 2.73242188 0.09570312 C4.03083008 0.16241211 4.03083008 0.16241211 5.35546875 0.23046875 C6.13946045 0.26938232 6.92345215 0.3082959 7.73120117 0.34838867 C10.32274821 0.92628086 11.23578484 1.69509241 12.8125 3.8125 C14.92127995 15.31493608 13.9717578 27.24896942 12.8125 38.8125 C8.41593827 38.83715504 4.0194128 38.85533842 -0.37719727 38.86743164 C-1.87394918 38.87247121 -3.37069616 38.87930287 -4.86743164 38.88793945 C-7.01449807 38.90002159 -9.16149962 38.90573191 -11.30859375 38.91015625 C-13.24883423 38.91801147 -13.24883423 38.91801147 -15.22827148 38.92602539 C-18.1875 38.8125 -18.1875 38.8125 -19.1875 37.8125 C-19.43058139 33.4679727 -19.41605235 29.11766943 -19.42773438 24.76708984 C-19.43739937 22.5852182 -19.46838906 20.40430491 -19.5 18.22265625 C-19.50653409 16.83073476 -19.51178297 15.43880653 -19.515625 14.046875 C-19.5249707 12.78069336 -19.53431641 11.51451172 -19.54394531 10.20996094 C-19.16104572 6.56035086 -18.40918929 4.70072918 -16.1875 1.8125 C-11.00204216 -0.87949113 -5.66658185 -0.32415638 0 0 Z " fill="#020101" transform="translate(187.1875,56.1875)"/>
<path d="M0 0 C1.98 0 3.96 0 6 0 C6 0.33 6 0.66 6 1 C4.02 1 2.04 1 0 1 C0 0.67 0 0.34 0 0 Z " fill="#000000" transform="translate(179,138)"/>
<path d="M0 0 C1.65 0 3.3 0 5 0 C5 0.33 5 0.66 5 1 C3.35 1 1.7 1 0 1 C0 0.67 0 0.34 0 0 Z " fill="#000000" transform="translate(164,138)"/>
<path d="M0 0 C0.33 0 0.66 0 1 0 C1 1.65 1 3.3 1 5 C0.67 5 0.34 5 0 5 C0 3.35 0 1.7 0 0 Z " fill="#000000" transform="translate(141,108)"/>
<path d="M0 0 C4 1 4 1 4 1 Z " fill="#000000" transform="translate(231,138)"/>
<path d="M0 0 C4 1 4 1 4 1 Z " fill="#000000" transform="translate(156,138)"/>
<path d="M0 0 C3 1 3 1 3 1 Z " fill="#000000" transform="translate(70,138)"/>
<path d="M0 0 C2 1 2 1 2 1 Z " fill="#000000" transform="translate(186,143)"/>
<path d="M0 0 C2 1 2 1 2 1 Z " fill="#000000" transform="translate(239,138)"/>
<path d="M0 0 C2 1 2 1 2 1 Z " fill="#000000" transform="translate(223,138)"/>
<path d="M0 0 C2 1 2 1 2 1 Z " fill="#000000" transform="translate(191,138)"/>
<path d="M0 0 C2 1 2 1 2 1 Z " fill="#000000" transform="translate(175,138)"/>
<path d="M0 0 C2 1 2 1 2 1 Z " fill="#000000" transform="translate(172,138)"/>
<path d="M0 0 C2 1 2 1 2 1 Z " fill="#000000" transform="translate(67,138)"/>
<path d="M0 0 C2 1 2 1 2 1 Z " fill="#000000" transform="translate(53,138)"/>
<path d="" fill="#000000" transform="translate(0,0)"/>
<path d="" fill="#000000" transform="translate(0,0)"/>
<path d="" fill="#000000" transform="translate(0,0)"/>
<path d="" fill="#000000" transform="translate(0,0)"/>
<path d="" fill="#000000" transform="translate(0,0)"/>
<path d="" fill="#000000" transform="translate(0,0)"/>
<path d="" fill="#800000" transform="translate(0,0)"/>
<path d="" fill="#000000" transform="translate(0,0)"/>
<path d="" fill="#000000" transform="translate(0,0)"/>
<path d="" fill="#000000" transform="translate(0,0)"/>
<path d="" fill="#000000" transform="translate(0,0)"/>
<path d="" fill="#000000" transform="translate(0,0)"/>
<path d="" fill="#000000" transform="translate(0,0)"/>
<path d="" fill="#000000" transform="translate(0,0)"/>
<path d="" fill="#000000" transform="translate(0,0)"/>
<path d="" fill="#000000" transform="translate(0,0)"/>
<path d="" fill="#000000" transform="translate(0,0)"/>
<path d="" fill="#000000" transform="translate(0,0)"/>
<path d="" fill="#000000" transform="translate(0,0)"/>
<path d="" fill="#000000" transform="translate(0,0)"/>
<path d="" fill="#000000" transform="translate(0,0)"/>
<path d="" fill="#000000" transform="translate(0,0)"/>
<path d="" fill="#000000" transform="translate(0,0)"/>
<path d="" fill="#000000" transform="translate(0,0)"/>
<path d="" fill="#000000" transform="translate(0,0)"/>
<path d="" fill="#000000" transform="translate(0,0)"/>
<path d="" fill="#000000" transform="translate(0,0)"/>
<path d="" fill="#000000" transform="translate(0,0)"/>
<path d="" fill="#000000" transform="translate(0,0)"/>
<path d="" fill="#000000" transform="translate(0,0)"/>
<path d="" fill="#000000" transform="translate(0,0)"/>
<path d="" fill="#000000" transform="translate(0,0)"/>
<path d="" fill="#000000" transform="translate(0,0)"/>
<path d="" fill="#000000" transform="translate(0,0)"/>
<path d="" fill="#000000" transform="translate(0,0)"/>
<path d="" fill="#000000" transform="translate(0,0)"/>
<path d="" fill="#000000" transform="translate(0,0)"/>
<path d="" fill="#000000" transform="translate(0,0)"/>
<path d="" fill="#000000" transform="translate(0,0)"/>
<path d="" fill="#000000" transform="translate(0,0)"/>
<path d="" fill="#000000" transform="translate(0,0)"/>
<path d="" fill="#000000" transform="translate(0,0)"/>
<path d="" fill="#000000" transform="translate(0,0)"/>
<path d="" fill="#000000" transform="translate(0,0)"/>
<path d="" fill="#000000" transform="translate(0,0)"/>
<path d="" fill="#000000" transform="translate(0,0)"/>
<path d="" fill="#000000" transform="translate(0,0)"/>
<path d="" fill="#000000" transform="translate(0,0)"/>
<path d="" fill="#000000" transform="translate(0,0)"/>
<path d="" fill="#000000" transform="translate(0,0)"/>
<path d="" fill="#000000" transform="translate(0,0)"/>
<path d="" fill="#000000" transform="translate(0,0)"/>
<path d="" fill="#000000" transform="translate(0,0)"/>
<path d="" fill="#000000" transform="translate(0,0)"/>
<path d="" fill="#000000" transform="translate(0,0)"/>
<path d="" fill="#000000" transform="translate(0,0)"/>
<path d="" fill="#000000" transform="translate(0,0)"/>
<path d="" fill="#000000" transform="translate(0,0)"/>
<path d="" fill="#000000" transform="translate(0,0)"/>
<path d="" fill="#000000" transform="translate(0,0)"/>
<path d="" fill="#000000" transform="translate(0,0)"/>
<path d="" fill="#000000" transform="translate(0,0)"/>
<path d="" fill="#000000" transform="translate(0,0)"/>
<path d="" fill="#000000" transform="translate(0,0)"/>
<path d="" fill="#000000" transform="translate(0,0)"/>
<path d="" fill="#000000" transform="translate(0,0)"/>
<path d="" fill="#000000" transform="translate(0,0)"/>
<path d="" fill="#000000" transform="translate(0,0)"/>
<path d="" fill="#000000" transform="translate(0,0)"/>
<path d="" fill="#000000" transform="translate(0,0)"/>
<path d="" fill="#000000" transform="translate(0,0)"/>
<path d="" fill="#000000" transform="translate(0,0)"/>
<path d="" fill="#000000" transform="translate(0,0)"/>
<path d="" fill="#000000" transform="translate(0,0)"/>
<path d="" fill="#000000" transform="translate(0,0)"/>
<path d="" fill="#000000" transform="translate(0,0)"/>
<path d="" fill="#000000" transform="translate(0,0)"/>
<path d="" fill="#000000" transform="translate(0,0)"/>
<path d="" fill="#000000" transform="translate(0,0)"/>
<path d="" fill="#000000" transform="translate(0,0)"/>
<path d="" fill="#000000" transform="translate(0,0)"/>
<path d="" fill="#000000" transform="translate(0,0)"/>
<path d="" fill="#000000" transform="translate(0,0)"/>
<path d="" fill="#000000" transform="translate(0,0)"/>
<path d="" fill="#550000" transform="translate(0,0)"/>
<path d="" fill="#000000" transform="translate(0,0)"/>
<path d="" fill="#000000" transform="translate(0,0)"/>
<path d="" fill="#000000" transform="translate(0,0)"/>
<path d="" fill="#000000" transform="translate(0,0)"/>
<path d="" fill="#000000" transform="translate(0,0)"/>
<path d="" fill="#000000" transform="translate(0,0)"/>
<path d="" fill="#000000" transform="translate(0,0)"/>
<path d="" fill="#000000" transform="translate(0,0)"/>
<path d="" fill="#000000" transform="translate(0,0)"/>
<path d="" fill="#000000" transform="translate(0,0)"/>
<path d="" fill="#000000" transform="translate(0,0)"/>
<path d="" fill="#000000" transform="translate(0,0)"/>
<path d="" fill="#000000" transform="translate(0,0)"/>
</svg>
